<svg xmlns="http://www.w3.org/2000/svg" viewBox="0 0 800 600" role="img" aria-labelledby="t d">
<title id="t">The Return of the King cozy watercolor exhibit</title><desc id="d">A hand-painted museum study of king returning an overdue crown at the circulation desk, with library stamp, throne, and receipt.</desc>
<defs>
 <filter id="paper"><feTurbulence type="fractalNoise" baseFrequency=".018" numOctaves="4" seed="43" result="n"/><feDisplacementMap in="SourceGraphic" in2="n" scale="4"/><feGaussianBlur stdDeviation=".15"/></filter>
 <filter id="wash"><feTurbulence type="fractalNoise" baseFrequency=".025" numOctaves="3" seed="60" result="noise"/><feColorMatrix in="noise" values="1 0 0 0 0  0 1 0 0 0  0 0 1 0 0  0 0 0 .18 0"/><feBlend in="SourceGraphic" mode="multiply"/></filter>
 <radialGradient id="g" cx="48%" cy="42%" r="70%"><stop offset="0" stop-color="#fff9e9"/><stop offset="1" stop-color="#e9d8c7"/></radialGradient>
</defs>
<rect width="800" height="600" rx="24" fill="url(#g)"/>
<g opacity=".22" filter="url(#wash)"><circle cx="130" cy="120" r="100" fill="#92745d"/><circle cx="680" cy="470" r="125" fill="#7f7795"/><path d="M0 430 Q190 355 390 430 T800 420 V600 H0Z" fill="#92745d"/></g>
<g filter="url(#paper)" stroke="#5b4638" stroke-width="9" stroke-linecap="round" stroke-linejoin="round" fill="none">
 <rect x="105" y="95" width="590" height="390" rx="28" fill="#fff8e8" opacity=".78"/>
 <path d="M165 390 Q245 260 330 390 T500 390 T645 390" stroke="#7f7795" opacity=".7"/>
 <ellipse cx="400" cy="295" rx="150" ry="112" fill="#92745d" opacity=".22"/>
 <path d="M305 330 Q400 190 495 330 Q400 405 305 330Z" fill="#fff4dc"/>
 <circle cx="365" cy="295" r="12" fill="#5b4638"/><circle cx="435" cy="295" r="12" fill="#5b4638"/>
 <path d="M370 345 Q400 365 430 345"/>
 <path d="M245 190 q-45 20 -35 70 q36 -15 58 15" stroke="#92745d"/>
 <path d="M555 190 q45 20 35 70 q-36 -15 -58 15" stroke="#7f7795"/>
</g>
<g font-family="Georgia, serif" text-anchor="middle" fill="#4d3b31">
 <text x="400" y="63" font-size="28" font-style="italic">Penelope's Watercolor Study</text>
 <text x="400" y="525" font-size="31" font-weight="700">The Return of the King</text>
 <text x="400" y="559" font-size="19">king returning an overdue crown at the circulation desk</text>
</g>
<g fill="#6b5140" opacity=".7"><ellipse cx="95" cy="530" rx="12" ry="20" transform="rotate(-25 95 530)"/><ellipse cx="125" cy="505" rx="11" ry="19" transform="rotate(-15 125 505)"/><ellipse cx="153" cy="480" rx="10" ry="18" transform="rotate(-5 153 480)"/></g>
</svg>